<?xml version="1.0" encoding="UTF-8"?>
<!DOCTYPE svg PUBLIC "-//W3C//DTD SVG 1.1//EN" "http://www.w3.org/Graphics/SVG/1.1/DTD/svg11.dtd">
<!-- Creator: Corel DESIGNER -->
<svg xmlns="http://www.w3.org/2000/svg" xml:space="preserve" width="750px" height="1000px" version="1.1" style="shape-rendering:geometricPrecision; text-rendering:geometricPrecision; image-rendering:optimizeQuality; fill-rule:evenodd; clip-rule:evenodd"
viewBox="0 0 750000 1000000"
 xmlns:xlink="http://www.w3.org/1999/xlink"
 xmlns:xodm="http://www.corel.com/coreldraw/odm/2003">
 <defs>
  <style type="text/css">
   <![CDATA[
    .str0 {stroke:white;stroke-width:2810;stroke-linejoin:bevel;stroke-miterlimit:22.9256}
    .fil1 {fill:none}
    .fil0 {fill:black}
   ]]>
  </style>
 </defs>
 <g id="Слой_x0020_1">
  <metadata id="CorelCorpID_0Corel-Layer"/>
  <g id="_2999499771200">
   <g id="_2649819143040">
    <g>
     <polygon class="fil0" points="504340,825580 535570,763670 535570,763670 557070,699980 557070,699980 568710,632730 568710,632730 570090,559040 570090,559040 561590,478780 561590,478780 554880,437960 554880,437960 551050,416180 551050,416180 548440,401530 548440,401530 547480,396180 547480,396180 546250,389470 546250,389470 544060,377010 544060,377010 541180,360710 541180,360710 537490,337430 537490,337430 532830,303320 532830,303320 528580,252780 528580,252780 531600,178270 531600,178270 540500,134990 540500,134990 549810,107600 549810,107600 562280,80880 562280,80880 578170,54730 578170,54730 579670,52540 579670,52540 581180,50210 581180,50210 582830,48010 582830,48010 535980,30070 535980,30070 492700,21440 492700,21440 444760,21170 444760,21170 399830,33080 399830,33080 392570,36640 392570,36640 390250,37870 390250,37870 385590,40620 385590,40620 376690,46780 376690,46780 360110,60480 360110,60480 349980,69930 349980,69930 345050,74720 345050,74720 342580,77190 342580,77190 341210,78420 341210,78420 339160,80470 339160,80470 337520,82260 337520,82260 334910,84720 334910,84720 330940,88560 330940,88560 328610,90750 328610,90750 327510,91710 327510,91710 325320,93760 325320,93760 321080,97730 321080,97730 312450,105400 312450,105400 299710,116360 299710,116360 293270,121700 293270,121700 289990,124580 289990,124580 285600,128280 285600,128280 282320,131020 282320,131020 280670,132520 280670,132520 278200,134580 278200,134580 274510,137590 274510,137590 268890,142110 268890,142110 260400,148550 260400,148550 247250,157180 247250,157180 225610,166350 225610,166350 191230,168410 191230,168410 175200,164710 175200,164710 177670,168130 177670,168130 180000,171560 180000,171560 182330,174980 182330,174980 196020,197580 196020,197580 207390,220450 207390,220450 216570,243880 216570,243880 232730,306750 232730,306750 240260,361950 240260,361950 242730,390020 242730,390020 243830,404540 243830,404540 244510,412890 244510,412890 245060,419470 245060,419470 245750,427550 245750,427550 246560,438780 246560,438780 248070,455220 248070,455220 250670,479740 250670,479740 254370,506860 254370,506860 255190,512750 255190,512750 257250,524390 257250,524390 262180,547810 262180,547810 274920,593560 274920,593560 305050,661490 305050,661490 343130,713540 343130,713540 388330,752580 388330,752580 417920,769840 417920,769840 372850,751350 372850,751350 331900,721630 331900,721630 295190,679980 295190,679980 263420,625330 263420,625330 251360,597670 251360,597670 249720,593560 249720,593560 246560,585200 246560,585200 240680,568360 240680,568360 230680,534390 230680,534390 216160,465220 216160,465220 208350,408240 208350,408240 183830,423990 183830,423990 175750,429200 175750,429200 181780,530830 181780,530830 200680,630130 200680,630130 232320,727240 232320,727240 276560,822290 276560,822290 278340,825580 278340,825580 "/>
     <g>
     </g>
    </g>
    <g>
     <polygon class="fil0" points="417920,769840 371480,740110 371480,740110 331760,700530 331760,700530 299030,650540 299030,650540 273410,589170 273410,589170 255740,515210 255740,515210 253410,500970 253410,500970 252590,495080 252590,495080 251080,483300 251080,483300 248480,459740 248480,459740 246160,433030 246160,433030 245060,419330 245060,419330 244370,411390 244370,411390 243970,404680 243970,404680 243280,396460 243280,396460 242320,384960 242320,384960 240810,368110 240810,368110 238070,343050 238070,343050 232600,306060 232600,306060 219310,251820 219310,251820 216570,243880 216570,243880 175340,270310 175340,270310 171920,272640 171920,272640 186160,314420 186160,314420 198210,359610 198210,359610 208350,408240 208350,408240 214380,454400 214380,454400 227530,522200 227530,522200 253000,601770 253000,601770 254650,605880 254650,605880 258210,614100 258210,614100 265880,630400 265880,630400 283140,661630 283140,661630 323680,713680 323680,713680 368190,748740 368190,748740 416680,769560 416680,769560 "/>
     <g>
     </g>
    </g>
    <g>
     <polygon class="fil0" points="540500,134990 529680,194710 529680,194710 529270,264560 529270,264560 537070,334410 537070,334410 542830,369890 542830,369890 546120,389070 546120,389070 548440,401530 548440,401530 549400,406870 549400,406870 551320,417420 551320,417420 553920,432210 553920,432210 557210,451660 557210,451660 561730,479460 561730,479460 567070,520560 567070,520560 570770,582320 570770,582320 564190,666700 564190,666700 545020,739290 545020,739290 514750,807090 514750,807090 504340,825580 504340,825580 540910,774080 540910,774080 567620,719570 567620,719570 584470,660680 584470,660680 591450,595340 591450,595340 588160,518230 588160,518230 582830,473440 582830,473440 579670,450840 579670,450840 577890,438370 577890,438370 576250,427280 576250,427280 574200,412080 574200,412080 571320,389880 571320,389880 567760,357010 567760,357010 565290,307840 565290,307840 571590,234570 571590,234570 590630,171420 590630,171420 594740,162250 594740,162250 587480,158540 587480,158540 540640,134990 540640,134990 "/>
     <g>
     </g>
    </g>
    <g>
     <polygon class="fil0" points="504340,825580 156720,825580 156720,825580 148640,833660 148640,833660 148640,987340 148640,987340 634050,987340 634050,987340 634050,833660 634050,833660 625970,825580 625970,825580 "/>
     <g>
     </g>
    </g>
    <line class="fil1 str0" x1="148640" y1="987340" x2="148640" y2= "833660" />
    <line class="fil1 str0" x1="634050" y1="987340" x2="634050" y2= "833660" />
    <line class="fil1 str0" x1="148640" y1="987340" x2="634050" y2= "987340" />
    <line class="fil1 str0" x1="156720" y1="825580" x2="625970" y2= "825580" />
    <line class="fil1 str0" x1="148640" y1="833660" x2="156720" y2= "825580" />
    <line class="fil1 str0" x1="634050" y1="833660" x2="625970" y2= "825580" />
    <line class="fil1 str0" x1="208350" y1="408240" x2="183830" y2= "423990" />
    <path class="fil1 str0" d="M208350 408240c7400,65060 19040,129980 43690,191210 30820,76290 81770,147100 165870,170390"/>
    <line class="fil1 str0" x1="540640" y1="134990" x2="587480" y2= "158540" />
    <line class="fil1 str0" x1="175340" y1="270310" x2="216570" y2= "243880" />
    <line class="fil1 str0" x1="540500" y1="134990" x2="540640" y2= "134990" />
    <path class="fil1 str0" d="M582830 48010c-54250,-27390 -135190,-40680 -189570,-11780 -24510,13020 -43550,34660 -64230,54110 -14390,13690 -29590,26290 -44650,38890 -30000,25340 -59580,50960 -109170,35480"/>
    <path class="fil1 str0" d="M578170 54730c1500,-2190 3010,-4520 4660,-6710"/>
    <path class="fil1 str0" d="M175200 164710c2470,3420 4800,6850 7130,10270"/>
    <path class="fil1 str0" d="M540500 134990c-23970,84370 -8490,175450 7400,263930 24660,136830 50260,267230 -43560,426660"/>
    <path class="fil1 str0" d="M540500 134990c7950,-27530 20000,-54520 37670,-80270"/>
    <path class="fil1 str0" d="M182330 174980c15060,22330 26020,45340 34240,68900"/>
    <path class="fil1 str0" d="M417920 769840c-104650,-52730 -147930,-158750 -164090,-266270 -13290,-88070 -8220,-177100 -37260,-259690"/>
    <path class="fil1 str0" d="M504340 825580c193130,-233530 -9310,-449390 90400,-663340"/>
    <line class="fil1 str0" x1="587480" y1="158540" x2="594740" y2= "162250" />
    <path class="fil1 str0" d="M175750 429200c-410,138060 68210,333240 102590,396380"/>
    <line class="fil1 str0" x1="175750" y1="429200" x2="183830" y2= "423990" />
    <line class="fil1 str0" x1="171920" y1="272640" x2="175340" y2= "270310" />
    <path class="fil1 str0" d="M171920 272640c15200,40130 31910,110530 36430,135600"/>
   </g>
  </g>
 </g>
</svg>
